<?xml version="1.0" encoding="utf-8"?>
<!-- Generator: Adobe Illustrator 24.1.1, SVG Export Plug-In . SVG Version: 6.00 Build 0)  -->
<svg version="1.1" id="Layer_1" xmlns="http://www.w3.org/2000/svg" xmlns:xlink="http://www.w3.org/1999/xlink" x="0px" y="0px"
	 viewBox="0 0 512 512" style="enable-background:new 0 0 512 512;" xml:space="preserve">
<style type="text/css">
	.st0{fill:#2B20B3;}
</style>
<path class="st0" d="M442.5,165.7L293.6,16.8c-0.3-0.3-0.7-0.6-1-0.9C283.4,6.1,270.5,0,256,0c-14.4,0-27.4,6.1-36.6,15.9
	c-0.4,0.3-0.7,0.6-1.1,1L69.5,165.7c-19.6,19.6-19.6,51.4,0,71.1c19.6,19.6,51.4,19.6,71.1,0l65.2-65.2v290.2
	c0,27.7,22.5,50.2,50.2,50.2s50.2-22.5,50.2-50.2V171.6l65.2,65.2c19.6,19.6,51.4,19.6,71.1,0C462.1,217.2,462.1,185.3,442.5,165.7z
	"/>
</svg>
